<?xml version="1.0" encoding="UTF-8" standalone="no"?>
<!-- Created with Inkscape (http://www.inkscape.org/) -->

<svg
   width="111.58389mm"
   height="24.618652mm"
   viewBox="0 0 111.58389 24.618652"
   version="1.1"
   id="svg5"
   xmlns:xlink="http://www.w3.org/1999/xlink"
   xmlns="http://www.w3.org/2000/svg"
   xmlns:svg="http://www.w3.org/2000/svg">
  <defs
     id="defs2">
    <linearGradient
       id="linearGradient1866">
      <stop
         style="stop-color:#ffb638;stop-opacity:1;"
         offset="0.0035524"
         id="stop1862" />
      <stop
         style="stop-color:#ff7942;stop-opacity:0.61165047;"
         offset="1"
         id="stop1864" />
    </linearGradient>
    <linearGradient
       id="linearGradient1733">
      <stop
         style="stop-color:#d29b29;stop-opacity:1;"
         offset="0"
         id="stop1731" />
    </linearGradient>
    <linearGradient
       xlink:href="#linearGradient1866"
       id="linearGradient1868"
       x1="2.2129946"
       y1="15.628645"
       x2="113.79688"
       y2="15.628645"
       gradientUnits="userSpaceOnUse" />
    <linearGradient
       xlink:href="#linearGradient1866"
       id="linearGradient2070"
       gradientUnits="userSpaceOnUse"
       x1="2.2129946"
       y1="15.628645"
       x2="113.79688"
       y2="15.628645" />
    <linearGradient
       xlink:href="#linearGradient1866"
       id="linearGradient2072"
       gradientUnits="userSpaceOnUse"
       x1="2.2129946"
       y1="15.628645"
       x2="113.79688"
       y2="15.628645" />
    <linearGradient
       xlink:href="#linearGradient1866"
       id="linearGradient2074"
       gradientUnits="userSpaceOnUse"
       x1="2.2129946"
       y1="15.628645"
       x2="113.79688"
       y2="15.628645" />
    <linearGradient
       xlink:href="#linearGradient1866"
       id="linearGradient2076"
       gradientUnits="userSpaceOnUse"
       x1="2.2129946"
       y1="15.628645"
       x2="113.79688"
       y2="15.628645" />
    <linearGradient
       xlink:href="#linearGradient1866"
       id="linearGradient2078"
       gradientUnits="userSpaceOnUse"
       x1="2.2129946"
       y1="15.628645"
       x2="113.79688"
       y2="15.628645" />
    <linearGradient
       xlink:href="#linearGradient1866"
       id="linearGradient2080"
       gradientUnits="userSpaceOnUse"
       x1="2.2129946"
       y1="15.628645"
       x2="113.79688"
       y2="15.628645" />
    <linearGradient
       xlink:href="#linearGradient1866"
       id="linearGradient2082"
       gradientUnits="userSpaceOnUse"
       x1="2.2129946"
       y1="15.628645"
       x2="113.79688"
       y2="15.628645" />
    <linearGradient
       xlink:href="#linearGradient1866"
       id="linearGradient2084"
       gradientUnits="userSpaceOnUse"
       x1="2.2129946"
       y1="15.628645"
       x2="113.79688"
       y2="15.628645" />
    <linearGradient
       xlink:href="#linearGradient1866"
       id="linearGradient2086"
       gradientUnits="userSpaceOnUse"
       x1="2.2129946"
       y1="15.628645"
       x2="113.79688"
       y2="15.628645" />
    <linearGradient
       xlink:href="#linearGradient1866"
       id="linearGradient2088"
       gradientUnits="userSpaceOnUse"
       x1="2.2129946"
       y1="15.628645"
       x2="113.79688"
       y2="15.628645" />
  </defs>
  <g
     id="layer1"
     transform="translate(-2.2129946,-3.3193189)">
    <g
       aria-label="Open Mojave"
       id="text236"
       style="font-weight:900;font-size:25.4px;font-family:'Segoe UI';-inkscape-font-specification:'Segoe UI, Heavy';fill:url(#linearGradient1868);stroke-width:0.5;stroke-linecap:round;stroke-linejoin:round;stop-color:#000000">
      <path
         d="M 13.784381,5.7129714 Q 13.548737,5.6509597 13.275885,5.6013503 L 15.322272,3.3193191 Z M 3.5400453,23.522737 q 0.2356445,0.07441 0.5084961,0.111621 L 2.2129945,25.891584 Z M 13.623151,5.8369948 q 1.32705,0.4216797 1.32705,1.5750976 0,0.3100586 -0.09922,0.6821289 L 11.365924,21.116682 q -0.669726,2.480469 -4.3780272,2.480469 h -1.550293 q -0.6945312,0 -1.227832,-0.08682 L 12.50694,13.365217 H 8.7862366 Z M 3.7012757,23.398713 q -1.4634765,-0.396875 -1.4634765,-1.624707 0,-0.310058 0.086816,-0.657324 L 5.8592835,8.0942213 Q 6.5290101,5.6137526 10.224908,5.6137526 h 1.525489 q 0.781347,0 1.364258,0.1116211 L 4.5694398,15.225569 h 3.7207031 z"
         style="font-style:italic;font-weight:normal;font-family:Overseer;-inkscape-font-specification:'Overseer, Italic';fill:url(#linearGradient2070)"
         id="path1999" />
      <path
         d="m 18.472467,23.597151 q -1.860352,0 -1.909961,-0.930176 l -1.413868,5.270996 H 11.737994 L 16.388873,10.57469 h 3.410644 l -0.173633,0.620117 q 0.558106,-0.930176 2.418457,-0.930176 2.864942,0 2.864942,1.748731 0,0.334863 -0.111621,0.731738 l -2.244824,8.371582 q -0.669727,2.480469 -4.080371,2.480469 z m -0.310059,-2.480469 q 0.992187,0 1.240234,-0.930176 l 1.649512,-6.201171 q 0.08682,-0.334864 0.08682,-0.582911 0,-0.657324 -0.657324,-0.657324 h -0.310058 q -0.954981,0 -1.289844,1.240235 l -1.661914,6.201171 q -0.04961,0.198438 -0.04961,0.359668 0,0.570508 0.682129,0.570508 z"
         style="font-style:italic;font-weight:normal;font-family:Overseer;-inkscape-font-specification:'Overseer, Italic';fill:url(#linearGradient2072)"
         id="path2001" />
      <path
         d="m 28.133891,17.706038 -0.595312,2.17041 q -0.08682,0.347265 -0.08682,0.58291 0,0.657324 0.63252,0.657324 h 0.310059 q 0.967382,0 1.314648,-1.240234 l 0.322461,-1.240235 h 3.410644 l -0.657324,2.480469 q -0.669726,2.480469 -4.378027,2.480469 h -1.55029 q -3.162598,0 -3.162598,-1.785938 0,-0.322461 0.09922,-0.694531 L 26.037895,12.7451 q 0.657325,-2.480469 4.353223,-2.480469 h 1.525488 q 3.212207,0 3.212207,1.79834 0,0.310059 -0.09922,0.682129 l -1.314648,4.960938 z m 2.728516,-2.170411 0.42168,-1.550292 q 0.08682,-0.334864 0.08682,-0.570508 0,-0.669727 -0.669727,-0.669727 h -0.310058 q -0.942578,0 -1.277441,1.240235 l -0.409278,1.550292 z"
         style="font-style:italic;font-weight:normal;font-family:Overseer;-inkscape-font-specification:'Overseer, Italic';fill:url(#linearGradient2074)"
         id="path2003" />
      <path
         d="m 40.263384,10.57469 -0.161231,0.620117 q 0.545703,-0.930176 2.716113,-0.930176 2.579688,0 2.579688,1.711524 0,0.347265 -0.111621,0.768945 l -2.852539,10.541992 h -3.410645 l 2.492871,-9.301757 q 0.08682,-0.334864 0.08682,-0.582911 0,-0.657324 -0.657325,-0.657324 h -0.310058 q -0.954981,0 -1.289844,1.240235 l -2.492871,9.301757 H 33.442095 L 36.852739,10.57469 Z"
         style="font-style:italic;font-weight:normal;font-family:Overseer;-inkscape-font-specification:'Overseer, Italic';fill:url(#linearGradient2076)"
         id="path2005" />
      <path
         d="m 59.077739,15.535627 -2.071191,7.751465 H 53.595903 L 58.246782,5.9238112 h 5.270996 l -0.744141,6.7468748 2.914551,-6.7468748 h 5.270996 L 66.308305,23.287092 h -3.410644 l 2.071191,-7.751465 -3.311426,7.751465 h -3.410644 z"
         style="font-style:italic;font-weight:normal;font-family:Overseer;-inkscape-font-specification:'Overseer, Italic';fill:url(#linearGradient2078)"
         id="path2007" />
      <path
         d="m 78.586627,10.277034 q -0.272851,-0.06201 -0.58291,-0.08682 L 80.18653,7.9701979 Z m -8.408789,13.307714 q 0.272852,0.06201 0.607715,0.09922 l -2.158008,2.207617 z m 8.247559,-13.183691 q 1.699121,0.359668 1.699121,1.661914 0,0.310059 -0.09922,0.682129 l -2.244824,8.371582 q -0.669727,2.480469 -4.378027,2.480469 h -1.550293 q -0.496094,0 -0.905371,-0.03721 l 7.230566,-7.404199 h -3.720703 z m -8.098731,13.059668 q -1.637109,-0.37207 -1.637109,-1.649512 0,-0.322461 0.09922,-0.694531 L 71.0336,12.7451 q 0.657324,-2.480469 4.353223,-2.480469 h 1.525488 q 0.508496,0 0.930176,0.04961 l -7.602637,7.701855 h 3.720703 z"
         style="font-style:italic;font-weight:normal;font-family:Overseer;-inkscape-font-specification:'Overseer, Italic';fill:url(#linearGradient2080)"
         id="path2009" />
      <path
         d="m 82.629793,10.57469 h 3.410644 L 82.08409,25.457502 q -0.694531,2.480469 -4.105176,2.480469 h -3.100586 l 0.657324,-2.480469 h 2.207618 q 0.892968,0 1.227832,-1.240234 z m 1.240234,-4.6508788 h 3.410645 l -0.657324,2.4804687 h -3.410645 z"
         style="font-style:italic;font-weight:normal;font-family:Overseer;-inkscape-font-specification:'Overseer, Italic';fill:url(#linearGradient2082)"
         id="path2011" />
      <path
         d="m 89.190633,16.155745 h 2.17041 l 0.595312,-2.17041 q 0.08682,-0.322461 0.08682,-0.570508 0,-0.669727 -0.682129,-0.669727 -0.942578,0 -1.277442,1.240235 l -0.347265,1.240234 H 86.338094 L 87.00782,12.7451 q 0.657324,-2.480469 4.328418,-2.480469 h 1.252637 q 3.224609,0 3.224609,1.810743 0,0.310058 -0.09922,0.669726 L 92.861726,23.287092 H 89.76114 l 0.161231,-0.620117 q -0.545703,0.930176 -2.406055,0.930176 -3.162597,0 -3.162597,-1.785938 0,-0.322461 0.09922,-0.694531 l 0.744141,-2.790527 q 0.58291,-2.17041 3.993555,-2.17041 z m 0.347265,2.17041 q -0.930175,0 -1.265039,1.240234 l -0.07441,0.297656 q -0.08682,0.334864 -0.08682,0.570508 0,0.682129 0.682129,0.682129 h 0.310058 q 0.880567,0 1.265039,-1.252637 l 0.409278,-1.53789 z"
         style="font-style:italic;font-weight:normal;font-family:Overseer;-inkscape-font-specification:'Overseer, Italic';fill:url(#linearGradient2084)"
         id="path2013" />
      <path
         d="M 95.342195,23.287092 95.962312,10.57469 h 3.410645 l -0.248047,4.948535 2.41846,-4.948535 h 3.41064 l -6.20117,12.712402 z"
         style="font-style:italic;font-weight:normal;font-family:Overseer;-inkscape-font-specification:'Overseer, Italic';fill:url(#linearGradient2086)"
         id="path2015" />
      <path
         d="m 106.80196,17.706038 -0.59531,2.17041 q -0.0868,0.347265 -0.0868,0.58291 0,0.657324 0.63252,0.657324 h 0.31006 q 0.96738,0 1.31465,-1.240234 l 0.32246,-1.240235 h 3.41064 l -0.65732,2.480469 q -0.66973,2.480469 -4.37803,2.480469 h -1.55029 q -3.1626,0 -3.1626,-1.785938 0,-0.322461 0.0992,-0.694531 l 2.24482,-8.371582 q 0.65733,-2.480469 4.35323,-2.480469 h 1.52548 q 3.21221,0 3.21221,1.79834 0,0.310059 -0.0992,0.682129 l -1.31465,4.960938 z m 2.72851,-2.170411 0.42168,-1.550292 q 0.0868,-0.334864 0.0868,-0.570508 0,-0.669727 -0.66973,-0.669727 h -0.31005 q -0.94258,0 -1.27745,1.240235 l -0.40927,1.550292 z"
         style="font-style:italic;font-weight:normal;font-family:Overseer;-inkscape-font-specification:'Overseer, Italic';fill:url(#linearGradient2088)"
         id="path2017" />
    </g>
  </g>
</svg>
